<svg width="476" height="667" viewBox="0 0 476 667" fill="none" preserveAspectRatio="none" xmlns="http://www.w3.org/2000/svg">
<path d="M471.274 0C471.206 0.995958 470.464 1.93806 469.205 2.62862C467.945 3.31918 466.266 3.7045 464.52 3.70374C462.778 3.70427 461.103 3.31813 459.851 2.62694C458.599 1.93575 457.867 0.99371 457.809 0L453.394 0C453.326 0.991616 452.591 1.93003 451.341 2.61992C450.091 3.3098 448.423 3.69801 446.684 3.70374C444.919 3.72416 443.211 3.34686 441.93 2.65359C440.65 1.96032 439.899 1.00692 439.841 0L435.426 0C435.347 0.998194 434.596 1.94039 433.329 2.63033C432.063 3.32027 430.379 3.70477 428.628 3.70374C426.866 3.71765 425.165 3.33818 423.886 2.64625C422.608 1.95433 421.854 1.00473 421.785 0L417.37 0C417.301 1.00033 416.553 1.94616 415.285 2.6374C414.016 3.32863 412.326 3.71105 410.571 3.70374C408.817 3.71105 407.127 3.32863 405.858 2.6374C404.589 1.94616 403.841 1.00033 403.773 0L399.358 0C399.301 0.99371 398.568 1.93575 397.316 2.62694C396.064 3.31813 394.39 3.70427 392.648 3.70374C390.883 3.72416 389.175 3.34686 387.894 2.65359C386.613 1.96032 385.862 1.00692 385.805 0L381.39 0C381.333 0.99371 380.6 1.93575 379.348 2.62694C378.096 3.31813 376.422 3.70427 374.68 3.70374C372.915 3.72416 371.207 3.34686 369.926 2.65359C368.645 1.96032 367.894 1.00692 367.837 0L363.422 0C363.353 0.995958 362.612 1.93806 361.352 2.62862C360.093 3.31918 358.414 3.7045 356.667 3.70374C354.897 3.71812 353.186 3.34027 351.893 2.64959C350.601 1.95892 349.827 1.00919 349.736 0L345.322 0C345.253 0.995958 344.511 1.93806 343.252 2.62862C341.992 3.31918 340.313 3.7045 338.567 3.70374C336.813 3.71105 335.123 3.32863 333.854 2.6374C332.585 1.94616 331.837 1.00033 331.768 0L327.353 0C327.296 1.00692 326.545 1.96032 325.264 2.65359C323.983 3.34686 322.276 3.72416 320.511 3.70374C318.768 3.70427 317.094 3.31813 315.842 2.62694C314.59 1.93575 313.858 0.99371 313.8 0L309.385 0C309.328 0.99371 308.596 1.93575 307.344 2.62694C306.091 3.31813 304.417 3.70427 302.675 3.70374C300.903 3.7309 299.183 3.35661 297.893 2.66263C296.602 1.96865 295.846 1.01139 295.788 0L291.373 0C291.284 0.991771 290.535 1.92679 289.28 2.61483C288.026 3.30287 286.359 3.69224 284.619 3.70374C282.861 3.71747 281.165 3.33719 279.893 2.64463C278.622 1.95206 277.878 1.00249 277.82 0L273.405 0C273.348 0.998084 272.609 1.94387 271.348 2.63574C270.086 3.32762 268.4 3.71085 266.651 3.70374C264.881 3.72431 263.169 3.3478 261.881 2.65519C260.593 1.96257 259.833 1.00917 259.764 0L255.349 0C255.292 0.99371 254.559 1.93575 253.307 2.62694C252.055 3.31813 250.381 3.70427 248.639 3.70374C246.874 3.72416 245.166 3.34686 243.885 2.65359C242.604 1.96032 241.853 1.00692 241.796 0L237.381 0C237.324 0.99371 236.591 1.93575 235.339 2.62694C234.087 3.31813 232.413 3.70427 230.671 3.70374C228.898 3.7309 227.179 3.35661 225.888 2.66263C224.598 1.96865 223.841 1.01139 223.784 0L219.369 0C219.311 0.99371 218.579 1.93575 217.327 2.62694C216.075 3.31813 214.4 3.70427 212.658 3.70374C210.893 3.72416 209.186 3.34686 207.905 2.65359C206.624 1.96032 205.873 1.00692 205.815 0L201.401 0C201.343 0.998084 200.605 1.94387 199.343 2.63574C198.081 3.32762 196.396 3.71085 194.646 3.70374C192.877 3.72431 191.164 3.3478 189.876 2.65519C188.588 1.96257 187.828 1.00917 187.759 0L183.344 0C183.287 0.998084 182.549 1.94387 181.287 2.63574C180.025 3.32762 178.34 3.71085 176.59 3.70374C174.833 3.71747 173.136 3.33719 171.865 2.64463C170.593 1.95206 169.849 1.00249 169.791 0L165.376 0C165.319 1.01139 164.562 1.96865 163.272 2.66263C161.981 3.35661 160.262 3.7309 158.489 3.70374C156.747 3.70427 155.073 3.31813 153.821 2.62694C152.568 1.93575 151.836 0.99371 151.779 0H147.364C147.307 0.99371 146.575 1.93575 145.322 2.62694C144.07 3.31813 142.396 3.70427 140.654 3.70374C138.889 3.72416 137.181 3.34686 135.9 2.65359C134.619 1.96032 133.869 1.00692 133.811 0H129.396C129.327 1.00033 128.58 1.94616 127.311 2.6374C126.042 3.32863 124.352 3.71105 122.598 3.70374C120.836 3.71765 119.134 3.33818 117.856 2.64625C116.578 1.95433 115.824 1.00473 115.755 0L111.34 0C111.271 0.995958 110.53 1.93806 109.27 2.62862C108.011 3.31918 106.332 3.7045 104.585 3.70374C102.82 3.72416 101.113 3.34686 99.8317 2.65359C98.5508 1.96032 97.8002 1.00692 97.7425 0L93.3277 0C93.2704 0.99371 92.5382 1.93575 91.2859 2.62694C90.0337 3.31813 88.3595 3.70427 86.6173 3.70374C84.8524 3.72416 83.1445 3.34686 81.8636 2.65359C80.5828 1.96032 79.8322 1.00692 79.7745 0H75.0507C74.9934 0.99371 74.2612 1.93575 73.0089 2.62694C71.7566 3.31813 70.0824 3.70427 68.3403 3.70374C66.6289 3.67854 64.9991 3.281 63.7844 2.59248C62.5698 1.90395 61.8622 0.976519 61.8065 0L57.3917 0C57.3129 0.989543 56.574 1.92442 55.3264 2.61305C54.0787 3.30167 52.4168 3.69189 50.6813 3.70374C48.9045 3.73102 47.1805 3.35752 45.883 2.6642C44.5855 1.97088 43.8192 1.01363 43.7501 0L39.3354 0C39.2777 1.01139 38.521 1.96865 37.2305 2.66263C35.9401 3.35661 34.2208 3.7309 32.4484 3.70374C30.7096 3.69801 29.0416 3.3098 27.7917 2.61992C26.5417 1.93003 25.8061 0.991616 25.738 0L21.3232 0C21.2655 1.00692 20.5149 1.96032 19.2341 2.65359C17.9532 3.34686 16.2453 3.72416 14.4804 3.70374C12.7382 3.70427 11.064 3.31813 9.81176 2.62694C8.55947 1.93575 7.82726 0.99371 7.76995 0L0 0V667H7.72581C7.72581 665.978 8.43745 664.997 9.70417 664.274C10.9709 663.551 12.6889 663.145 14.4804 663.145C16.2718 663.145 17.9898 663.551 19.2566 664.274C20.5233 664.997 21.2349 665.978 21.2349 667H25.6497C25.6497 665.978 26.3613 664.997 27.628 664.274C28.8948 663.551 30.6128 663.145 32.4042 663.145C34.1957 663.145 35.9137 663.551 37.1804 664.274C38.4472 664.997 39.1588 665.978 39.1588 667H43.5736C43.7111 666.028 44.4847 665.121 45.7404 664.46C46.9961 663.799 48.6418 663.432 50.3502 663.432C52.0586 663.432 53.7043 663.799 54.96 664.46C56.2157 665.121 56.9893 666.028 57.1268 667H61.5416C61.5416 666.494 61.7163 665.992 62.0557 665.525C62.3952 665.057 62.8927 664.632 63.5199 664.274C64.1472 663.916 64.8918 663.632 65.7113 663.439C66.5308 663.245 67.4091 663.145 68.2961 663.145C69.1832 663.145 70.0615 663.245 70.881 663.439C71.7005 663.632 72.4451 663.916 73.0723 664.274C73.6996 664.632 74.1971 665.057 74.5365 665.525C74.876 665.992 75.0507 666.494 75.0507 667H79.4654C79.4654 666.494 79.6402 665.992 79.9796 665.525C80.3191 665.057 80.8166 664.632 81.4438 664.274C82.071 663.916 82.8156 663.632 83.6351 663.439C84.4546 663.245 85.333 663.145 86.22 663.145C87.107 663.145 87.9854 663.245 88.8049 663.439C89.6244 663.632 90.369 663.916 90.9962 664.274C91.6234 664.632 92.121 665.057 92.4604 665.525C92.7999 665.992 92.9746 666.494 92.9746 667H97.3893C97.3139 666.469 97.4321 665.935 97.7362 665.432C98.0403 664.929 98.5239 664.467 99.1564 664.075C99.789 663.684 100.557 663.371 101.411 663.158C102.266 662.944 103.189 662.834 104.122 662.834C105.055 662.834 105.978 662.944 106.832 663.158C107.687 663.371 108.455 663.684 109.087 664.075C109.72 664.467 110.203 664.929 110.507 665.432C110.812 665.935 110.93 666.469 110.854 667H115.269C115.269 665.971 115.985 664.984 117.26 664.256C118.535 663.529 120.265 663.12 122.068 663.12C123.871 663.12 125.6 663.529 126.875 664.256C128.15 664.984 128.866 665.971 128.866 667H133.281C133.281 665.978 133.993 664.997 135.26 664.274C136.526 663.551 138.244 663.145 140.036 663.145C141.827 663.145 143.545 663.551 144.812 664.274C146.079 664.997 146.79 665.978 146.79 667H151.205C151.008 666.441 151.031 665.863 151.273 665.309C151.514 664.756 151.968 664.239 152.602 663.798C153.235 663.356 154.033 663.001 154.936 662.756C155.84 662.512 156.827 662.385 157.827 662.385C158.827 662.385 159.815 662.512 160.718 662.756C161.622 663.001 162.419 663.356 163.053 663.798C163.686 664.239 164.14 664.756 164.382 665.309C164.623 665.863 164.646 666.441 164.449 667H168.864C168.667 666.441 168.69 665.863 168.932 665.309C169.173 664.756 169.627 664.239 170.261 663.798C170.894 663.356 171.691 663.001 172.595 662.756C173.499 662.512 174.486 662.385 175.486 662.385C176.486 662.385 177.474 662.512 178.377 662.756C179.281 663.001 180.078 663.356 180.712 663.798C181.345 664.239 181.799 664.756 182.041 665.309C182.282 665.863 182.305 666.441 182.108 667H186.523C186.661 666.028 187.434 665.121 188.69 664.46C189.946 663.799 191.591 663.432 193.3 663.432C195.008 663.432 196.654 663.799 197.91 664.46C199.165 665.121 199.939 666.028 200.076 667H204.491C204.491 666.494 204.666 665.992 205.005 665.525C205.345 665.057 205.842 664.632 206.469 664.274C207.097 663.916 207.841 663.632 208.661 663.439C209.48 663.245 210.359 663.145 211.246 663.145C212.133 663.145 213.011 663.245 213.83 663.439C214.65 663.632 215.395 663.916 216.022 664.274C216.649 664.632 217.147 665.057 217.486 665.525C217.825 665.992 218 666.494 218 667H222.415C222.34 666.469 222.458 665.935 222.762 665.432C223.066 664.929 223.55 664.467 224.182 664.075C224.815 663.684 225.582 663.371 226.437 663.158C227.292 662.944 228.214 662.834 229.147 662.834C230.08 662.834 231.003 662.944 231.858 663.158C232.713 663.371 233.48 663.684 234.113 664.075C234.745 664.467 235.229 664.929 235.533 665.432C235.837 665.935 235.955 666.469 235.88 667H240.295C240.295 665.978 241.006 664.997 242.273 664.274C243.54 663.551 245.258 663.145 247.049 663.145C248.841 663.145 250.559 663.551 251.825 664.274C253.092 664.997 253.804 665.978 253.804 667H258.219C258.219 665.978 258.93 664.997 260.197 664.274C261.464 663.551 263.182 663.145 264.973 663.145C266.765 663.145 268.483 663.551 269.749 664.274C271.016 664.997 271.728 665.978 271.728 667H276.142C276.142 665.978 276.854 664.997 278.121 664.274C279.388 663.551 281.106 663.145 282.897 663.145C284.688 663.145 286.406 663.551 287.673 664.274C288.94 664.997 289.652 665.978 289.652 667H294.066C293.869 666.441 293.892 665.863 294.134 665.309C294.375 664.756 294.829 664.239 295.463 663.798C296.096 663.356 296.894 663.001 297.797 662.756C298.701 662.512 299.689 662.385 300.688 662.385C301.688 662.385 302.676 662.512 303.579 662.756C304.483 663.001 305.28 663.356 305.914 663.798C306.548 664.239 307.001 664.756 307.243 665.309C307.484 665.863 307.508 666.441 307.311 667H311.725C311.725 665.978 312.437 664.997 313.704 664.274C314.97 663.551 316.688 663.145 318.48 663.145C320.271 663.145 321.989 663.551 323.256 664.274C324.523 664.997 325.234 665.978 325.234 667H329.649C329.452 666.441 329.475 665.863 329.717 665.309C329.958 664.756 330.412 664.239 331.046 663.798C331.679 663.356 332.477 663.001 333.38 662.756C334.284 662.512 335.271 662.385 336.271 662.385C337.271 662.385 338.259 662.512 339.162 662.756C340.066 663.001 340.863 663.356 341.497 663.798C342.13 664.239 342.584 664.756 342.826 665.309C343.067 665.863 343.09 666.441 342.893 667H347.308C347.446 666.028 348.219 665.121 349.475 664.46C350.731 663.799 352.376 663.432 354.085 663.432C355.793 663.432 357.439 663.799 358.695 664.46C359.95 665.121 360.724 666.028 360.861 667H365.276C365.276 665.978 365.988 664.997 367.255 664.274C368.521 663.551 370.239 663.145 372.031 663.145C373.822 663.145 375.54 663.551 376.807 664.274C378.074 664.997 378.785 665.978 378.785 667H383.2C383.2 665.978 383.912 664.997 385.178 664.274C386.445 663.551 388.163 663.145 389.955 663.145C391.746 663.145 393.464 663.551 394.731 664.274C395.997 664.997 396.709 665.978 396.709 667H401.124C401.049 666.469 401.167 665.935 401.471 665.432C401.775 664.929 402.258 664.467 402.891 664.075C403.524 663.684 404.291 663.371 405.146 663.158C406 662.944 406.923 662.834 407.856 662.834C408.789 662.834 409.712 662.944 410.567 663.158C411.421 663.371 412.189 663.684 412.822 664.075C413.454 664.467 413.938 664.929 414.242 665.432C414.546 665.935 414.664 666.469 414.589 667H419.004C419.141 666.028 419.915 665.121 421.17 664.46C422.426 663.799 424.072 663.432 425.78 663.432C427.489 663.432 429.134 663.799 430.39 664.46C431.646 665.121 432.419 666.028 432.557 667H436.972C436.972 665.978 437.683 664.997 438.95 664.274C440.217 663.551 441.935 663.145 443.726 663.145C445.518 663.145 447.236 663.551 448.502 664.274C449.769 664.997 450.481 665.978 450.481 667H454.896C454.698 666.441 454.722 665.863 454.963 665.309C455.205 664.756 455.658 664.239 456.292 663.798C456.926 663.356 457.723 663.001 458.627 662.756C459.53 662.512 460.518 662.385 461.518 662.385C462.518 662.385 463.505 662.512 464.409 662.756C465.312 663.001 466.11 663.356 466.743 663.798C467.377 664.239 467.831 664.756 468.072 665.309C468.314 665.863 468.337 666.441 468.14 667H475.866V0H471.274Z" fill="url(#paint0_linear_147_445)"/>
<defs>
<linearGradient id="paint0_linear_147_445" x1="239.5" y1="667" x2="239.5" y2="0" gradientUnits="userSpaceOnUse">
<stop stop-color="#E1E1DF" stop-opacity="0.47"/>
<stop offset="0.04" stop-color="#F5F5F4"/>
<stop offset="0.12" stop-color="#F1F1F0"/>
<stop offset="0.22" stop-color="#F7F7F7"/>
<stop offset="0.5" stop-color="#F8F8F8"/>
<stop offset="0.78" stop-color="#F7F7F7"/>
<stop offset="0.88" stop-color="#F1F1F0"/>
<stop offset="0.95" stop-color="#F0F0F0"/>
<stop offset="0.99" stop-color="#E1E1E1" stop-opacity="0.57"/>
</linearGradient>
</defs>
</svg>
